<?xml version="1.0" encoding="UTF-8"?>
<svg width="20px" height="20px" viewBox="0 0 20 20" version="1.1" xmlns="http://www.w3.org/2000/svg" xmlns:xlink="http://www.w3.org/1999/xlink">
    <!-- Generator: Sketch 63.1 (92452) - https://sketch.com -->
    <title>icon/wishlist</title>
    <desc>Created with Sketch.</desc>
    <g id="icon/wishlist" stroke="none" stroke-width="1" fill="none" fill-rule="evenodd">
        <path d="M5.70936611,2.49366875 C5.36836611,2.49366875 5.02336611,2.53866875 4.68636611,2.63266875 C2.76736611,3.16266875 1.42636611,5.17566875 1.49636611,7.41866875 C1.56836611,9.70266875 2.95636611,11.9516688 5.73736611,14.2916688 C6.38736611,14.9266688 8.74636611,16.5266688 10.0003661,17.3546688 C11.2543661,16.5266688 13.6093661,14.9306688 14.2203661,14.3306688 C17.0433661,11.9516688 18.4313661,9.70266875 18.5033661,7.41866875 C18.5733661,5.17566875 17.2323661,3.16266875 15.3133661,2.63266875 C13.6123661,2.16366875 11.7303661,2.95066875 10.6173661,4.58966875 C10.3403661,4.99866875 9.66036611,4.99966875 9.38336611,4.58966875 C8.47636611,3.25266875 7.10536611,2.49366875 5.70936611,2.49366875 M10.0003661,18.9996688 C9.85836611,18.9996688 9.71736611,18.9596688 9.59436611,18.8786688 C9.19236611,18.6176688 5.65136611,16.3016688 4.73536611,15.4016688 C1.65136611,12.8096688 0.0913661069,10.2016688 0.00336610687,7.46666875 C-0.0886338931,4.53966875 1.71436611,1.89966875 4.28936611,1.18766875 C6.29936611,0.630668754 8.49436611,1.33966875 10.0003661,2.96766875 C11.5043661,1.33966875 13.6943661,0.630668754 15.7103661,1.18766875 C18.2853661,1.89966875 20.0883661,4.53966875 19.9963661,7.46666875 C19.9083661,10.2016688 18.3473661,12.8096688 15.2233661,15.4406688 C14.3493661,16.3016688 10.8083661,18.6176688 10.4063661,18.8786688 C10.2833661,18.9596688 10.1423661,18.9996688 10.0003661,18.9996688" id="Fill-1" fill="#373935"></path>
    </g>
</svg>